# xmcd
#
# Track frame offsets: 
#        150
#        25552
#        55245
#        96852
#        117692
#        151092
#        179602
#        202345
#        228225
#
# Disc length: 3258 seconds
#
# Revision: 4
# Processed by: cddbd v1.5.2PL0 Copyright (c) Steve Scherf et al.
# Submitted via: ExactAudioCopy v0.99pb5
#
DISCID=760cb809
DTITLE=Dave Douglas - The Infinite
DYEAR=2001
DGENRE=Jazz
TTITLE0=Poses
TTITLE1=The Infinite
TTITLE2=Penelope
TTITLE3=Crazy Games
TTITLE4=Waverly
TTITLE5=Yorke
TTITLE6=Unison
TTITLE7=Deluge
TTITLE8=Argo
EXTD=YEAR: 2001
EXTT0=
EXTT1=
EXTT2=
EXTT3=
EXTT4=
EXTT5=
EXTT6=
EXTT7=
EXTT8=
PLAYORDER=
